<svg width="24" height="24" viewBox="0 0 24 24" fill="none" xmlns="http://www.w3.org/2000/svg">
<path d="M17.5641 19.5763C16.7561 20.3595 15.874 20.2358 15.024 19.8649C14.1261 19.4856 13.3017 19.4691 12.3523 19.8649C11.1664 20.3761 10.5398 20.2276 9.83078 19.5763C5.80746 15.4293 6.40107 8.11407 10.9686 7.8832C12.0816 7.9409 12.8565 8.49331 13.5082 8.5428C14.4812 8.3449 15.4124 7.77603 16.4511 7.85027C17.6961 7.94914 18.6358 8.44386 19.2542 9.33426C16.6819 10.876 17.2921 14.2644 19.65 15.2126C19.1801 16.4492 18.5699 17.6777 17.5559 18.5846L17.5641 19.5763ZM13.4255 7.8338C13.3017 5.9952 14.794 4.47824 16.5089 4.32983C16.748 6.45688 14.5796 8.03985 13.4255 7.8338Z" fill="white"/>
</svg>
