<svg width="13" height="14" viewBox="0 0 13 14" fill="none" xmlns="http://www.w3.org/2000/svg">
<path d="M9.11846 13.0536C8.22227 12.9333 7.37035 12.616 6.63424 12.1281C5.78111 11.5786 4.99742 10.9421 4.29795 10.2307C3.41588 9.39869 2.58387 8.5225 1.80566 7.60609C1.18197 6.87275 0.70086 6.04469 0.383802 5.15891C0.181269 4.58272 0.128135 3.97054 0.228702 3.37184C0.370382 2.68081 0.757916 2.05348 1.32961 1.58974C1.5605 1.39871 1.81125 1.22926 2.0782 1.08389C2.23717 0.990444 2.42225 0.942139 2.61058 0.944939C2.79891 0.94774 2.98223 1.00152 3.13787 1.09964C3.88368 1.51017 4.45529 2.14426 4.75785 2.89667C4.8097 3.00266 4.82989 3.11956 4.81633 3.23521C4.80277 3.35086 4.75596 3.46104 4.68076 3.55428C4.49339 3.78814 4.29795 4.01618 4.10878 4.25086C3.94203 4.45818 3.769 4.6655 3.62108 4.88028C3.54489 4.97976 3.50451 5.0989 3.50564 5.2208C3.50676 5.34271 3.54934 5.46119 3.62736 5.55945C4.0012 6.04457 4.36339 6.54462 4.76951 7.00652C5.50511 7.8488 6.3196 8.6294 7.20352 9.33926C7.40075 9.49599 7.61144 9.63447 7.82122 9.77627C7.91069 9.84056 8.01823 9.87974 8.13107 9.88914C8.2439 9.89855 8.35728 9.87781 8.45773 9.82936C8.68275 9.72671 8.90181 9.61321 9.11399 9.48935C9.40804 9.31604 9.69671 9.13775 9.98449 8.96609C10.1033 8.89565 10.2409 8.85698 10.3821 8.85434C10.5232 8.85171 10.6623 8.88522 10.7842 8.95116C11.528 9.29229 12.1345 9.84433 12.5153 10.5268C12.6223 10.6973 12.6706 10.894 12.6537 11.0906C12.6369 11.2871 12.5558 11.4743 12.4212 11.6272C12.0988 12.063 11.669 12.4217 11.1672 12.6736C10.6654 12.9255 10.1061 13.0634 9.53533 13.0759C9.39539 13.074 9.25566 13.0654 9.11667 13.0502L9.11846 13.0536Z" fill="white"/>
</svg>
