<svg width="34" height="40" viewBox="0 0 34 40" fill="none" xmlns="http://www.w3.org/2000/svg">
<g filter="url(#filter0_d_350_3332)">
<path fill-rule="evenodd" clip-rule="evenodd" d="M25.7314 5.01823L24.111 4.05331L24.1087 4.05722L23.9675 3.97297C23.1205 3.39232 20.5225 2.54199 20.5225 2.54199C19.4108 2.35612 18.3135 3.2643 17.5609 4.10344C17.1534 4.17506 16.7503 4.44832 16.4928 4.87789L14.969 7.42109C14.7643 7.76243 14.6902 8.1403 14.7348 8.47722L14.5119 8.84905L13.8344 9.9793L12.5225 9.7748L12.2915 10.16L13.4403 10.6369L9.39147 17.3925C9.0726 17.5134 8.77438 17.7562 8.56906 18.0984L4.8448 24.3124C4.61648 24.6933 4.55109 25.1182 4.62994 25.4832C4.29046 26.3019 3.895 27.6279 4.61425 28.1601L9.23631 30.9122L13.858 33.6638C14.669 34.0429 15.6526 33.0669 16.2151 32.3813C16.5753 32.2776 16.9196 32.019 17.148 31.6379L20.8722 25.4241C21.0774 25.0816 21.1508 24.7048 21.1062 24.3679L25.1817 17.5676L26.0676 18.2849L26.2985 17.8998L25.562 16.9332L26.2265 15.8243L26.4596 15.45C26.7757 15.3266 27.069 15.0861 27.2723 14.7467L28.7962 12.2035C29.0036 11.8574 29.0772 11.4742 29.0293 11.134C29.4428 10.0601 29.7959 8.56367 29.0669 7.62931C29.0669 7.62931 27.0844 5.75264 26.1701 5.28454L25.7292 5.02198L25.7314 5.01823Z" fill="white"/>
</g>
<rect x="7.43555" y="29.0215" width="2" height="5" rx="1" transform="rotate(-60.2163 7.43555 29.0215)" fill="#242E42"/>
<rect x="4.83179" y="27.5312" width="2" height="4" rx="1" transform="rotate(-60.2163 4.83179 27.5312)" fill="#F52D56"/>
<rect x="22.7085" y="4.34888" width="1" height="5" rx="0.5" transform="rotate(-60.2163 22.7085 4.34888)" fill="#242E42"/>
<rect x="10.9072" y="31.0083" width="2" height="4" rx="1" transform="rotate(-60.2163 10.9072 31.0083)" fill="#F52D56"/>
<path fill-rule="evenodd" clip-rule="evenodd" d="M21.6051 11.4218L21.6007 11.4287C23.2376 12.543 24.1756 13.4639 24.6909 14.205C25.2586 15.0216 25.3139 15.6192 25.227 16.0123C25.2258 16.0182 25.2237 16.0235 25.2227 16.0288C25.2055 16.1029 25.1838 16.169 25.1584 16.2286C25.0556 16.4754 24.9105 16.5953 24.9105 16.5953L21.0538 19.5326C21.0188 18.7735 18.7344 17.0722 17.8606 16.4472C16.9293 15.9101 14.4347 14.5359 13.7269 14.8161L14.8256 10.1035C14.8256 10.1035 14.8754 9.92209 15.0591 9.72754C15.1022 9.68083 15.1526 9.6353 15.2115 9.5894C15.2165 9.58531 15.2225 9.58027 15.2281 9.57589C15.5525 9.33563 16.1218 9.14012 17.1026 9.3193C17.9921 9.48343 19.2196 9.95652 20.9114 10.985L20.9158 10.9782C21.0335 11.0533 21.1477 11.1274 21.2601 11.2004C21.3729 11.2724 21.4879 11.3456 21.6051 11.4218Z" fill="#242E42"/>
<path fill-rule="evenodd" clip-rule="evenodd" d="M10.3245 20.655L15.0524 23.6984L17.9107 25.5386L18.0899 25.6537C18.5874 27.0014 17.5007 28.7831 16.6585 29.8864L6.97987 23.6561C7.64229 22.437 8.82435 20.7164 10.2609 20.614L10.3245 20.655Z" fill="#242E42"/>
<path fill-rule="evenodd" clip-rule="evenodd" d="M8.0319 19.9266C8.60462 18.9259 12.9049 11.4122 12.9049 11.4122C12.9049 11.4122 12.5391 16.0778 11.9689 17.0739C11.3988 18.0701 7.45918 20.9272 8.0319 19.9266Z" fill="#242E42"/>
<path fill-rule="evenodd" clip-rule="evenodd" d="M20.1851 26.8764C20.7578 25.8757 25.0581 18.362 25.0581 18.362C25.0581 18.362 21.1491 21.1657 20.579 22.1618C20.0089 23.158 19.6124 27.8771 20.1851 26.8764Z" fill="#242E42"/>
<defs>
<filter id="filter0_d_350_3332" x="0.210938" y="0.517578" width="33.2776" height="39.231" filterUnits="userSpaceOnUse" color-interpolation-filters="sRGB">
<feFlood flood-opacity="0" result="BackgroundImageFix"/>
<feColorMatrix in="SourceAlpha" type="matrix" values="0 0 0 0 0 0 0 0 0 0 0 0 0 0 0 0 0 0 127 0" result="hardAlpha"/>
<feOffset dy="2"/>
<feGaussianBlur stdDeviation="2"/>
<feColorMatrix type="matrix" values="0 0 0 0 0 0 0 0 0 0 0 0 0 0 0 0 0 0 0.2 0"/>
<feBlend mode="normal" in2="BackgroundImageFix" result="effect1_dropShadow_350_3332"/>
<feBlend mode="normal" in="SourceGraphic" in2="effect1_dropShadow_350_3332" result="shape"/>
</filter>
</defs>
</svg>
