<svg width="78" height="78" viewBox="0 0 78 78" fill="none" xmlns="http://www.w3.org/2000/svg">
<circle cx="39" cy="39" r="39" fill="#E5A829"/>
<g clip-path="url(#clip0_241_1611)">
<path d="M33.6776 52.1223C33.4245 52.1225 33.1739 52.0728 32.9401 51.9759C32.7062 51.8791 32.4939 51.7369 32.3152 51.5577L20.7528 39.9953C20.5739 39.8165 20.432 39.6039 20.3351 39.3702C20.2383 39.1364 20.1885 38.8859 20.1885 38.6329C20.1885 38.3799 20.2383 38.1294 20.3351 37.8956C20.432 37.6619 20.5739 37.4493 20.7528 37.2705C20.9317 37.0916 21.1441 36.9496 21.3779 36.8529C21.6117 36.7559 21.8622 36.7062 22.1152 36.7062C22.3683 36.7062 22.6188 36.7559 22.8526 36.8529C23.0863 36.9496 23.2988 37.0916 23.4777 37.2705L33.5678 47.3606L55.3397 21.9619C55.6719 21.574 56.1447 21.3339 56.6538 21.2946C57.1629 21.2552 57.667 21.4197 58.0549 21.7519C58.4429 22.0841 58.6828 22.5568 58.7223 23.066C58.7616 23.5752 58.5972 24.0792 58.265 24.4671L35.1402 51.4459C34.9677 51.6481 34.7552 51.8124 34.5161 51.9285C34.2769 52.0445 34.0164 52.1098 33.7508 52.1204L33.6776 52.1223Z" fill="white"/>
</g>
<defs>
<clipPath id="clip0_241_1611">
<rect width="38.5412" height="38.5412" fill="white" transform="translate(20.1885 17.4353)"/>
</clipPath>
</defs>
</svg>
