<svg width="254" height="157" viewBox="0 0 254 157" fill="none" xmlns="http://www.w3.org/2000/svg">
<path d="M210.388 103.658C210.388 55.9235 171.424 17.2268 123.359 17.2268C75.2946 17.2268 36.3304 55.9235 36.3304 103.658C36.3009 122.918 42.7777 141.631 54.7244 156.802H191.993C203.94 141.631 210.417 122.918 210.388 103.658Z" fill="white"/>
<path d="M242.499 121.94H220.016C219.821 121.94 219.627 121.902 219.447 121.827C219.266 121.753 219.103 121.644 218.965 121.507C218.826 121.37 218.717 121.207 218.642 121.028C218.568 120.849 218.529 120.657 218.529 120.463C218.529 120.072 218.686 119.696 218.965 119.419C219.243 119.143 219.622 118.987 220.016 118.987H242.499C242.894 118.987 243.272 119.143 243.55 119.419C243.829 119.696 243.986 120.072 243.986 120.463C243.986 120.657 243.948 120.849 243.873 121.028C243.798 121.207 243.689 121.37 243.551 121.507C243.413 121.644 243.249 121.753 243.068 121.827C242.888 121.902 242.695 121.94 242.499 121.94Z" fill="#FDBF00" fill-opacity="0.17"/>
<path d="M26.1738 106.435H1.4865C1.29127 106.435 1.09795 106.397 0.917576 106.322C0.737202 106.248 0.573311 106.14 0.435267 106.002C0.297222 105.865 0.18773 105.703 0.113045 105.523C0.0383603 105.344 -5.31178e-05 105.152 5.51272e-08 104.958C5.51272e-08 104.567 0.156613 104.191 0.435385 103.915C0.714158 103.638 1.09225 103.482 1.4865 103.482H26.1738C26.568 103.482 26.946 103.638 27.2248 103.915C27.5035 104.192 27.6602 104.567 27.6603 104.958C27.6603 105.35 27.5036 105.726 27.2249 106.002C26.9461 106.279 26.568 106.435 26.1738 106.435Z" fill="#FDBF00" fill-opacity="0.14"/>
<path d="M247.311 135.59H244.954C244.335 135.59 243.833 136.089 243.833 136.704V138.901C243.833 139.516 244.335 140.015 244.954 140.015H247.311C247.93 140.015 248.432 139.516 248.432 138.901V136.704C248.432 136.089 247.93 135.59 247.311 135.59Z" fill="#FF833E" fill-opacity="0.25"/>
<path d="M19.8971 123.076H16.7752C15.9549 123.076 15.2899 123.736 15.2899 124.551V127.461C15.2899 128.276 15.9549 128.936 16.7752 128.936H19.8971C20.7174 128.936 21.3824 128.276 21.3824 127.461V124.551C21.3824 123.736 20.7174 123.076 19.8971 123.076Z" fill="#FDBF00" fill-opacity="0.25"/>
<path d="M168.444 6.83252H179.132C179.397 6.83443 179.65 6.94064 179.836 7.12779C180.022 7.31494 180.125 7.56771 180.123 7.83051V13.0347C180.125 13.2975 180.022 13.5503 179.836 13.7374C179.65 13.9246 179.397 14.0308 179.132 14.0327H173.62L170.342 16.8209V14.1802L168.422 14.1259C168.161 14.1189 167.913 14.0105 167.732 13.824C167.55 13.6375 167.449 13.3878 167.451 13.1284V7.83172C167.45 7.70134 167.475 7.57203 167.524 7.45122C167.574 7.3304 167.646 7.22044 167.739 7.12763C167.831 7.03481 167.941 6.96098 168.062 6.91034C168.183 6.8597 168.312 6.83326 168.444 6.83252Z" stroke="#FDBF00" stroke-opacity="0.22" stroke-width="1.293" stroke-linecap="round" stroke-linejoin="round"/>
<path d="M239.234 55.0368C239.225 55.6707 239.027 56.2878 238.666 56.8104C238.305 57.3331 237.796 57.738 237.204 57.9743C236.611 58.2106 235.962 58.2677 235.337 58.1385C234.712 58.0093 234.139 57.6994 233.691 57.248C233.243 56.7965 232.939 56.2235 232.818 55.6011C232.697 54.9786 232.764 54.3345 233.01 53.7496C233.256 53.1648 233.671 52.6653 234.203 52.314C234.734 51.9627 235.358 51.7752 235.997 51.7751C236.861 51.7814 237.688 52.1285 238.295 52.7402C238.903 53.3518 239.24 54.1779 239.234 55.0368V55.0368Z" stroke="#E5A829" stroke-width="1.257" stroke-miterlimit="10"/>
<path d="M6.82502 82.217C6.81584 82.8509 6.61819 83.468 6.2569 83.9906C5.8956 84.5133 5.3868 84.9182 4.79444 85.1545C4.20208 85.3908 3.55261 85.4479 2.92766 85.3187C2.30271 85.1895 1.73017 84.8796 1.28202 84.4281C0.833869 83.9767 0.5301 83.4037 0.408899 82.7813C0.287699 82.1588 0.354476 81.5147 0.600836 80.9298C0.847197 80.345 1.26214 79.8455 1.79352 79.4942C2.3249 79.1429 2.94899 78.9554 3.58735 78.9553C4.45216 78.9616 5.27906 79.3087 5.88621 79.9204C6.49336 80.532 6.83105 81.3581 6.82502 82.217Z" stroke="#FDBF00" stroke-opacity="0.19" stroke-width="1.257" stroke-miterlimit="10"/>
<path d="M94.9148 11.7947C94.9416 11.8268 94.9778 11.8499 95.0183 11.8607C95.0589 11.8714 95.1018 11.8694 95.1412 11.8549C95.1805 11.8404 95.2144 11.814 95.238 11.7796C95.2616 11.7451 95.2738 11.7042 95.273 11.6625L95.2609 7.74365V1.40078C95.2609 1.21654 95.2243 1.0341 95.1533 0.863887C95.0823 0.693673 94.9782 0.539018 94.847 0.408757C94.7158 0.278495 94.5601 0.175179 94.3887 0.104708C94.2172 0.034238 94.0335 -0.00200586 93.848 -0.00195307H76.6588C76.2842 -0.00195307 75.9249 0.145835 75.6601 0.408899C75.3952 0.671963 75.2464 1.02876 75.2464 1.40078V8.28183C75.2465 8.65383 75.3953 9.01056 75.6602 9.2736C75.925 9.53664 76.2842 9.68446 76.6588 9.68457H93.0989L94.9148 11.7947Z" fill="#E5A829"/>
<path d="M82.018 4.89761C82.0185 5.06628 81.9686 5.2313 81.8746 5.37181C81.7807 5.51233 81.6469 5.62202 81.4902 5.68702C81.3334 5.75203 81.1608 5.76943 80.9942 5.73702C80.8275 5.70461 80.6742 5.62385 80.5538 5.50495C80.4333 5.38605 80.3511 5.23434 80.3174 5.06902C80.2838 4.90369 80.3002 4.73217 80.3647 4.57614C80.4292 4.4201 80.5388 4.28656 80.6797 4.1924C80.8207 4.09824 80.9865 4.04768 81.1563 4.04712C81.2691 4.04675 81.3809 4.06846 81.4853 4.11101C81.5897 4.15355 81.6846 4.2161 81.7646 4.29508C81.8446 4.37406 81.9081 4.46793 81.9516 4.57131C81.9951 4.67469 82.0177 4.78557 82.018 4.89761Z" fill="white"/>
<path d="M85.7025 4.88646C85.7031 5.05526 85.6533 5.22046 85.5594 5.36115C85.4655 5.50185 85.3317 5.61171 85.1749 5.67686C85.0181 5.74201 84.8453 5.75951 84.6785 5.72714C84.5117 5.69478 84.3583 5.614 84.2377 5.49504C84.1172 5.37607 84.0348 5.22426 84.0011 5.05881C83.9674 4.89336 83.9839 4.7217 84.0485 4.56555C84.113 4.4094 84.2228 4.27578 84.3638 4.18159C84.5049 4.08739 84.6709 4.03686 84.8408 4.03638C84.9536 4.03601 85.0654 4.05771 85.1697 4.10023C85.274 4.14275 85.3689 4.20526 85.4489 4.2842C85.5289 4.36314 85.5925 4.45695 85.636 4.56029C85.6795 4.66362 85.7021 4.77446 85.7025 4.88646Z" fill="white"/>
<path d="M89.3869 4.87515C89.3875 5.04393 89.3376 5.20908 89.2436 5.34973C89.1497 5.49037 89.0158 5.60017 88.859 5.66526C88.7022 5.73034 88.5295 5.74778 88.3627 5.71537C88.1959 5.68296 88.0426 5.60216 87.922 5.48317C87.8015 5.36419 87.7192 5.21238 87.6855 5.04694C87.6519 4.8815 87.6684 4.70986 87.733 4.55374C87.7975 4.39761 87.9073 4.26401 88.0483 4.16984C88.1893 4.07566 88.3553 4.02514 88.5253 4.02466C88.7531 4.02402 88.9718 4.11325 89.1334 4.27274C89.295 4.43222 89.3862 4.64891 89.3869 4.87515Z" fill="white"/>
<path d="M207.474 3.27344H228.434C229.145 3.27344 229.827 3.55394 230.329 4.05323C230.832 4.55253 231.114 5.22972 231.114 5.93582V25.3491C231.114 25.6987 231.045 26.0449 230.91 26.3679C230.776 26.6909 230.578 26.9844 230.329 27.2316C230.08 27.4789 229.785 27.675 229.46 27.8088C229.134 27.9426 228.786 28.0114 228.434 28.0114H208.329C207.865 28.0114 207.405 27.9206 206.976 27.7441C206.547 27.5675 206.157 27.3088 205.828 26.9826C205.5 26.6564 205.24 26.2692 205.062 25.8431C204.884 25.4169 204.793 24.9602 204.793 24.499V5.93582C204.793 5.22972 205.075 4.55253 205.578 4.05323C206.081 3.55394 206.763 3.27344 207.474 3.27344V3.27344Z" fill="#E5A829"/>
<path d="M223.964 17.6642L222.402 16.1115C222.277 15.9677 222.123 15.8515 221.95 15.7704C221.777 15.6892 221.589 15.645 221.398 15.6404C221.017 15.651 220.657 15.8098 220.393 16.0826L219.501 16.9716L219.333 16.8884C219.238 16.8478 219.144 16.8015 219.054 16.7498C218.172 16.1785 217.389 15.4671 216.739 14.6441C216.447 14.2993 216.203 13.9173 216.013 13.5082C216.237 13.3145 216.432 13.0926 216.627 12.8989L216.878 12.6493C217.027 12.5225 217.146 12.3652 217.228 12.1883C217.31 12.0114 217.352 11.819 217.352 11.6244C217.352 11.4297 217.31 11.2373 217.228 11.0604C217.146 10.8835 217.027 10.7263 216.878 10.5994L216.097 9.82371C216.007 9.73764 215.923 9.64508 215.846 9.54678C215.678 9.38038 215.482 9.18504 215.316 9.02025C215.053 8.74739 214.692 8.58853 214.312 8.57812C214.123 8.57963 213.936 8.61964 213.763 8.69569C213.591 8.77174 213.435 8.88221 213.307 9.02025L212.331 9.9897C211.966 10.3552 211.739 10.8349 211.689 11.3474C211.658 12.0671 211.782 12.7851 212.053 13.4531C212.544 14.7878 213.282 16.0191 214.23 17.083C215.455 18.5365 216.976 19.7166 218.693 20.546C219.478 20.9416 220.328 21.195 221.202 21.2944H221.398C221.712 21.2992 222.024 21.2374 222.313 21.1131C222.602 20.9888 222.86 20.805 223.072 20.5737L223.1 20.546C223.253 20.3662 223.421 20.1995 223.602 20.0476L223.966 19.6859C224.105 19.5558 224.215 19.399 224.29 19.2252C224.365 19.0513 224.404 18.864 224.404 18.6747C224.404 18.4854 224.365 18.2981 224.289 18.1244C224.214 17.9506 224.103 17.794 223.964 17.6642ZM223.323 19.1051C223.211 19.2157 223.099 19.3265 222.988 19.4375C222.792 19.6039 222.624 19.7992 222.43 19.9917C222.302 20.1276 222.146 20.2349 221.973 20.3065C221.8 20.3782 221.613 20.4125 221.426 20.4073H221.286C220.524 20.3284 219.785 20.1024 219.11 19.7421C217.51 18.9633 216.093 17.8589 214.952 16.5006C214.093 15.5012 213.405 14.3686 212.915 13.1481C212.656 12.6138 212.541 12.0219 212.58 11.4302C212.598 11.1215 212.739 10.8324 212.971 10.6264L213.919 9.68424C214.019 9.57205 214.159 9.50264 214.31 9.49051C214.385 9.49354 214.459 9.51237 214.526 9.54576C214.593 9.57915 214.653 9.62635 214.701 9.68424L215.203 10.183C215.288 10.2822 215.382 10.3748 215.482 10.46L216.263 11.2361C216.371 11.3393 216.44 11.4763 216.458 11.624C216.446 11.7734 216.376 11.9124 216.263 12.0118L216.012 12.261L215.316 12.9539L215.288 12.9817C215.19 13.065 215.121 13.1768 215.091 13.3012C215.061 13.4257 215.072 13.5563 215.121 13.6746V13.7023C215.357 14.2406 215.667 14.744 216.041 15.1983C216.752 16.0999 217.61 16.8771 218.58 17.4978C218.695 17.5732 218.817 17.6381 218.944 17.6919C219.04 17.7326 219.133 17.7789 219.223 17.8306L219.251 17.8583C219.378 17.9252 219.524 17.9479 219.665 17.9226C219.806 17.8974 219.935 17.8258 220.031 17.7192L221.007 16.7494C221.05 16.6894 221.106 16.6405 221.172 16.6067C221.237 16.5729 221.31 16.5553 221.384 16.5553C221.458 16.5553 221.53 16.5729 221.596 16.6067C221.662 16.6405 221.718 16.6894 221.76 16.7494L223.323 18.3012C223.382 18.3503 223.43 18.4117 223.463 18.4812C223.496 18.5506 223.513 18.6264 223.513 18.7031C223.513 18.7799 223.496 18.8557 223.463 18.9251C223.43 18.9946 223.382 19.056 223.323 19.1051Z" fill="white"/>
<path d="M10.9826 19.4658H34.4752C34.8699 19.4656 35.2607 19.5426 35.6254 19.6925C35.9902 19.8424 36.3216 20.0621 36.6007 20.3392C36.8799 20.6163 37.1014 20.9453 37.2525 21.3075C37.4036 21.6696 37.4813 22.0578 37.4813 22.4498V44.2078C37.4813 44.9992 37.1648 45.7582 36.6013 46.3178C36.0379 46.8774 35.2736 47.1918 34.4768 47.1918H11.9409C11.4205 47.1918 10.9052 47.09 10.4244 46.8922C9.9436 46.6944 9.50673 46.4045 9.13874 46.039C8.77075 45.6736 8.47884 45.2397 8.27969 44.7622C8.08053 44.2847 7.97803 43.7729 7.97803 43.2561V22.4498C7.97803 21.6584 8.29458 20.8994 8.85804 20.3398C9.42151 19.7802 10.1857 19.4658 10.9826 19.4658Z" fill="#E5A829"/>
<path d="M17.1135 27.5948C16.0029 28.6977 15.2465 30.103 14.9401 31.6329C14.6337 33.1627 14.7909 34.7485 15.3919 36.1896C15.993 37.6308 17.0108 38.8625 18.3167 39.7291C19.6227 40.5958 21.158 41.0583 22.7287 41.0583C24.2993 41.0583 25.8347 40.5958 27.1406 39.7291C28.4466 38.8625 29.4644 37.6308 30.0654 36.1896C30.6665 34.7485 30.8237 33.1627 30.5173 31.6329C30.2108 30.103 29.4545 28.6977 28.3438 27.5948C26.8505 26.1234 24.8322 25.2979 22.7287 25.2979C20.6252 25.2979 18.6069 26.1234 17.1135 27.5948ZM28.324 28.7306H25.7933C25.5298 27.9162 25.2008 27.1241 24.8095 26.362C26.1957 26.7811 27.4215 27.6073 28.3256 28.7318L28.324 28.7306ZM19.8113 32.7097C19.8118 31.6792 19.938 30.6526 20.1873 29.6523H25.2672C25.5165 30.6526 25.6428 31.6792 25.6432 32.7097H19.8113ZM25.612 33.6342C25.5372 34.6693 25.3544 35.694 25.0665 36.6917H20.388C20.1001 35.694 19.9173 34.6693 19.8425 33.6342H25.612ZM22.7273 26.0582C23.1029 26.0581 23.478 26.0871 23.8491 26.145C24.3169 26.9681 24.7025 27.8346 25.0005 28.7322H20.4556C20.7532 27.8345 21.1389 26.9679 21.607 26.145C21.9781 26.0866 22.3532 26.057 22.7289 26.0566L22.7273 26.0582ZM20.645 26.3637C20.2536 27.1257 19.9245 27.9177 19.6612 28.7322H17.1301C18.034 27.6068 19.26 26.7799 20.6467 26.3604L20.645 26.3637ZM16.4992 29.6543H19.3977C19.1477 30.6551 19.0119 31.6807 18.993 32.7117H15.5797C15.6479 31.6356 15.9629 30.5893 16.5008 29.6527L16.4992 29.6543ZM16.4992 36.6917C15.9617 35.7555 15.6467 34.7097 15.5785 33.6342H19.006C19.0593 34.6673 19.2214 35.692 19.4896 36.6917H16.4992ZM17.1301 37.6141H19.7636C20.035 38.4342 20.362 39.2351 20.7426 40.0112C19.3182 39.6015 18.0568 38.7635 17.1318 37.6125L17.1301 37.6141ZM22.7273 40.2881C22.4134 40.2881 22.0999 40.2678 21.7887 40.2274C21.3605 39.3821 20.9895 38.5093 20.6782 37.6149H24.7787C24.4671 38.5092 24.0961 39.3819 23.6682 40.2274C23.3567 40.2673 23.043 40.287 22.7289 40.2865L22.7273 40.2881ZM24.7103 40.0112C25.0907 39.2351 25.4177 38.4342 25.6889 37.6141H28.3224C27.3975 38.7637 26.1368 39.6006 24.7136 40.0096L24.7103 40.0112ZM28.9533 36.6917H25.9629C26.2313 35.6921 26.3934 34.6673 26.4465 33.6342H29.8781C29.8093 34.7092 29.4941 35.7545 28.9566 36.69L28.9533 36.6917ZM29.874 32.7125H26.4607C26.442 31.6815 26.3062 30.6559 26.056 29.6551H28.9545C29.4928 30.5905 29.8087 31.6357 29.8781 32.7109L29.874 32.7125Z" fill="white"/>
<path d="M228.752 76.678H251.137C251.896 76.678 252.624 76.9775 253.161 77.5107C253.698 78.044 254 78.7672 254 79.5212V100.253C254 101.007 253.698 101.73 253.161 102.264C252.624 102.797 251.896 103.096 251.137 103.096H229.665C228.664 103.096 227.703 102.701 226.995 101.998C226.287 101.295 225.889 100.341 225.889 99.3468V79.5212C225.889 78.7672 226.191 78.044 226.727 77.5107C227.264 76.9775 227.993 76.678 228.752 76.678V76.678Z" fill="#E5A829"/>
<path d="M243.236 87.7283C243.236 87.0578 243.036 86.4024 242.661 85.8449C242.286 85.2875 241.753 84.853 241.129 84.5964C240.506 84.3398 239.819 84.2727 239.157 84.4035C238.495 84.5343 237.887 84.8572 237.409 85.3313C236.932 85.8053 236.607 86.4094 236.475 87.0669C236.344 87.7245 236.411 88.4061 236.67 89.0255C236.928 89.6449 237.365 90.1744 237.927 90.5468C238.488 90.9193 239.148 91.1181 239.823 91.1181C240.271 91.1181 240.715 91.0305 241.129 90.8601C241.543 90.6897 241.92 90.4401 242.237 90.1253C242.554 89.8105 242.805 89.4368 242.976 89.0255C243.148 88.6142 243.236 88.1734 243.236 87.7283ZM237.263 87.7283C237.263 87.2254 237.413 86.7338 237.694 86.3157C237.976 85.8975 238.375 85.5716 238.843 85.3792C239.311 85.1867 239.826 85.1364 240.322 85.2345C240.819 85.3326 241.275 85.5748 241.633 85.9304C241.991 86.286 242.235 86.739 242.334 87.2322C242.433 87.7254 242.382 88.2367 242.188 88.7013C241.995 89.1659 241.666 89.563 241.245 89.8424C240.824 90.1217 240.329 90.2709 239.823 90.2709C239.487 90.2709 239.154 90.2052 238.843 90.0774C238.533 89.9497 238.25 89.7624 238.013 89.5263C237.775 89.2902 237.586 89.0098 237.458 88.7013C237.329 88.3928 237.263 88.0622 237.263 87.7283Z" fill="white"/>
<path d="M239.477 97.7246C239.517 97.7781 239.569 97.8216 239.628 97.8516C239.688 97.8816 239.754 97.8972 239.821 97.8972C239.888 97.8972 239.954 97.8816 240.014 97.8516C240.073 97.8216 240.125 97.7781 240.165 97.7246C240.199 97.6776 240.362 97.4565 240.61 97.108L243.129 93.2395C244.299 91.2575 245.369 89.0771 245.369 87.7282C245.369 86.2672 244.784 84.8662 243.744 83.8331C242.704 82.8001 241.293 82.2197 239.822 82.2197C238.351 82.2197 236.94 82.8001 235.9 83.8331C234.86 84.8662 234.276 86.2672 234.276 87.7282C234.276 89.0381 235.285 91.1325 236.415 93.0678L239.036 97.11C239.282 97.4573 239.444 97.6776 239.477 97.7246ZM239.821 83.0674C241.066 83.0674 242.261 83.5586 243.141 84.433C244.021 85.3073 244.516 86.4932 244.516 87.7298C244.516 89.7575 241.396 94.5465 239.821 96.7503C238.248 94.5465 235.127 89.7567 235.127 87.7298C235.127 87.1174 235.248 86.511 235.484 85.9452C235.72 85.3794 236.066 84.8654 236.502 84.4324C236.938 83.9994 237.456 83.6561 238.026 83.4218C238.596 83.1876 239.206 83.0672 239.823 83.0674H239.821Z" fill="white"/>
<path d="M41.7838 81.0295L40.061 85.1429C40.061 85.1429 49.9849 92.2024 58.1956 96.2547C60.7857 97.5328 63.7943 95.4319 63.6337 92.5645L63.6288 92.4761C63.5859 91.7157 63.3149 90.9855 62.8509 90.3792C62.3868 89.7729 61.7508 89.3183 61.0245 89.0738C52.6296 86.2482 50.9893 85.1228 41.7838 81.0295Z" fill="#D97F48"/>
<path d="M41.3718 85.5102C41.3718 85.5102 32.7887 89.2674 29.6324 83.816L42.6495 80.6074L41.3718 85.5102Z" fill="#D97F48"/>
<path d="M68.1271 66.3928C64.0234 73.3731 59.0742 83.3647 56.3554 90.9781C55.6536 92.9443 56.374 95.1421 58.2846 96.0082L58.3526 96.0392C59.2514 96.4556 60.2756 96.5187 61.2193 96.2158C62.163 95.913 62.9563 95.2666 63.4398 94.4066C69.6432 83.29 75.1687 74.6268 75.1687 74.6268L68.1271 66.3928Z" fill="#D97F48"/>
<path d="M68.2955 64.4668C68.2955 64.4668 62.1285 65.7674 56.9705 80.8877L68.5788 87.7269L72.8586 79.2864L68.2955 64.4668Z" fill="#EF7530"/>
<path d="M62.5887 83.921H49.1928V81.7908H62.5887C62.8732 81.7908 63.1461 81.903 63.3473 82.1029C63.5485 82.3027 63.6616 82.5737 63.6616 82.8563C63.6614 83.1387 63.5482 83.4096 63.347 83.6092C63.1459 83.8089 62.8731 83.921 62.5887 83.921Z" fill="#08101C"/>
<path d="M54.5188 83.9129H23.994C23.6459 83.913 23.307 83.8027 23.0263 83.5982C22.7457 83.3937 22.5382 83.1056 22.4338 82.7758L17.0261 64.8188C16.9715 64.6462 16.9585 64.4633 16.9883 64.2848C17.0181 64.1063 17.0898 63.9372 17.1975 63.7914C17.3053 63.6455 17.4462 63.5269 17.6087 63.4452C17.7712 63.3634 17.9508 63.3208 18.133 63.3208H47.0782C47.4263 63.3207 47.7653 63.431 48.0459 63.6355C48.3265 63.84 48.534 64.1281 48.6384 64.4579L54.5188 83.9129Z" fill="#111D36"/>
<path d="M36.9042 72.904C36.9854 73.3511 36.9312 73.812 36.7486 74.2284C36.5659 74.6449 36.263 74.9982 35.8782 75.2437C35.4934 75.4892 35.0439 75.6159 34.5866 75.6077C34.1293 75.5994 33.6847 75.4567 33.309 75.1976C32.9334 74.9384 32.6436 74.5744 32.4762 74.1517C32.3089 73.7289 32.2715 73.2664 32.3689 72.8225C32.4662 72.3787 32.6939 71.9735 33.0232 71.6582C33.3524 71.3429 33.7684 71.1316 34.2186 71.0511C34.5174 70.9976 34.824 71.003 35.1207 71.0672C35.4174 71.1313 35.6985 71.2529 35.948 71.425C36.1974 71.597 36.4102 71.8162 36.5743 72.07C36.7383 72.3238 36.8505 72.6072 36.9042 72.904Z" fill="#E6F5FA"/>
<path d="M95.6947 85.9935C95.6947 85.9935 103.06 112.408 106.067 135.384L111.126 134.431C111.126 134.431 109.556 100.765 104.455 79.938L95.6947 85.9935Z" fill="#D97F48"/>
<path d="M111.084 133.279C111.084 133.279 118.695 144.44 109.56 149.457C109.268 149.618 108.928 149.673 108.599 149.614C108.27 149.555 107.971 149.385 107.753 149.132L107.694 149.063C107.461 148.785 107.341 148.43 107.359 148.068C107.377 147.706 107.532 147.364 107.792 147.111C109.089 145.804 110.834 143.097 108.053 139.561C108.053 139.561 106.594 139.931 106.839 142.81C106.855 142.984 106.832 143.159 106.772 143.323C106.713 143.487 106.617 143.636 106.493 143.759C106.369 143.883 106.219 143.978 106.054 144.037C105.889 144.097 105.712 144.12 105.537 144.104C105.289 144.081 105.055 143.982 104.866 143.82C104.678 143.659 104.545 143.443 104.485 143.203C104.006 141.305 103.214 136.6 106.269 134.071L111.084 133.279Z" fill="#D97F48"/>
<path d="M96.6522 64.4668C96.6522 64.4668 101.365 65.831 106.389 81.6357L94.7809 88.4745L92.0887 79.2848L96.6522 64.4668Z" fill="#EF7530"/>
<path d="M97.3686 63.5399L88.0502 60.0603L78.47 60.1817L68.857 63.4869C67.9861 63.7864 67.2644 64.3783 66.8315 65.148C66.3987 65.9178 66.2854 66.8108 66.5135 67.6543L73.5725 93.7784H92.4845L99.0049 66.449C99.1457 65.8608 99.0584 65.2447 98.7585 64.7114C98.4585 64.1782 97.9657 63.7628 97.3686 63.5399Z" fill="#FF8C4B"/>
<path d="M91.3587 94.075H73.6114V96.8953H91.3587V94.075Z" fill="#111D36"/>
<path d="M70.9601 83.6898L67.9147 71.7585" stroke="#51A99F" stroke-width="1.368" stroke-miterlimit="10"/>
<path d="M93.5603 84.3072L96.3884 71.7585" stroke="#51A99F" stroke-width="1.368" stroke-miterlimit="10"/>
<path d="M91.3587 96.8955H73.6114C73.6114 96.8955 65.0113 99.0603 59.2571 139.064C58.3801 145.161 57.6237 151.105 56.9705 156.802H73.7307L81.1369 119.882L82.7558 120.306L85.4888 156.801H101.235L101.564 137.085C101.564 137.085 100.144 104.996 91.3587 96.8955Z" fill="#E5A829"/>
<path d="M82.7545 120.305L77.2396 118.167" stroke="#005A94" stroke-width="1.368" stroke-miterlimit="10"/>
<path d="M97.2909 45.4456C96.5053 42.4874 96.22 43.0163 93.5785 37.1316C92.0001 33.616 90.7795 32.2028 90.0523 31.6344C88.0582 29.8247 85.4618 28.8094 82.7606 28.7832C80.0595 28.7571 77.4436 29.7218 75.4143 31.4925C74.7219 31.9508 73.4211 33.2787 71.691 37.132C69.0495 43.0167 68.7637 42.4878 67.9786 45.446C67.1935 48.4042 68.1927 53.864 74.3325 54.9275C73.8025 54.3456 73.4336 53.6371 73.2617 52.8712C73.2617 52.8712 75.8316 56.3451 79.3295 56.1325H85.9396C89.4375 56.3451 92.0074 52.8712 92.0074 52.8712C91.8357 53.6371 91.4669 54.3456 90.937 54.9275C97.0764 53.8636 98.076 48.4042 97.2909 45.4456Z" fill="#111D36"/>
<path d="M90.8168 62.012L87.1974 60.5811L86.1047 51.1241C85.3754 51.8242 84.4682 52.3145 83.4802 52.5425C82.4524 52.6658 81.412 52.4542 80.5157 51.9396C80.4971 51.9292 79.2935 50.9348 79.2935 50.9348L78.2072 60.7017L74.2629 62.1374C74.2629 62.1374 74.5179 64.682 82.8594 64.682C91.2008 64.682 90.8168 62.012 90.8168 62.012Z" fill="#D97F48"/>
<path d="M78.6051 51.2719C78.6051 51.2719 80.8961 55.6658 83.6235 55.0363C86.4714 54.3792 86.4564 50.6633 86.4564 50.6633L78.6051 51.2719Z" fill="#111D36"/>
<path d="M92.4461 38.644C92.4461 44.0251 88.2295 48.3872 83.0285 48.3872C77.8276 48.3872 73.611 44.0251 73.611 38.644C73.611 33.263 77.8272 29.6006 83.0285 29.6006C88.2299 29.6006 92.4461 33.263 92.4461 38.644Z" fill="#111D36"/>
<path d="M90.8107 39.1454C90.8069 41.9394 90.492 44.7244 89.8718 47.4496C89.4124 49.4593 88.1202 50.8661 86.2937 51.9983L85.9611 52.2045C85.0028 52.7921 83.9014 53.1092 82.7752 53.1218C81.6491 53.1343 80.5408 52.8418 79.5695 52.2756C77.5905 51.1124 76.2047 49.5783 75.7782 47.4195C75.2833 44.6867 74.9958 41.9209 74.9182 39.1454C74.9182 39.1454 74.18 30.6767 82.7513 30.8415C91.3226 31.0063 90.8107 39.1454 90.8107 39.1454Z" fill="#D97F48"/>
<path d="M75.853 47.1004C74.3431 48.3954 71.1633 43.2672 72.6255 41.8846C74.0877 40.5019 75.1225 42.7519 75.1225 42.7519L75.4188 44.3721L75.8603 46.5534L75.9744 47.0425L75.853 47.1004Z" fill="#D97F48"/>
<path d="M73.2819 43.6112C73.2819 43.6112 73.8999 42.2828 75.3378 44.616" stroke="#111D36" stroke-width="1.004" stroke-linecap="round" stroke-linejoin="round"/>
<path d="M89.8677 47.1289C91.3999 48.3978 94.4907 43.2165 93.0046 41.8588C91.5185 40.501 90.5233 42.7683 90.5233 42.7683L90.2546 44.3937L89.8499 46.5818L89.7443 47.073L89.8677 47.1289Z" fill="#D97F48"/>
<path d="M92.3777 43.5979C92.3777 43.5979 91.7371 42.2804 90.3396 44.6365" stroke="#111D36" stroke-width="1.004" stroke-linecap="round" stroke-linejoin="round"/>
<path d="M75.0282 41.7827C75.0282 41.7827 78.4549 37.1818 77.6645 32.521C76.8337 33.0082 76.1176 33.6666 75.5646 34.4519C75.0116 35.2372 74.6346 36.131 74.4588 37.0733C73.7963 40.3542 75.0282 41.7827 75.0282 41.7827Z" fill="#111D36"/>
<path d="M90.9548 41.8752C90.9548 41.8752 86.836 36.8711 87.6264 32.21C89.3698 33.3191 90.6005 35.0682 91.0499 37.0753C91.712 40.3543 90.9548 41.8752 90.9548 41.8752Z" fill="#111D36"/>
<path d="M72.4854 38.4737H93.2333C93.2333 38.4737 90.8965 29.7454 82.1442 29.2249C73.392 28.7044 72.4854 38.4737 72.4854 38.4737Z" fill="#111D36"/>
<path d="M79.8568 42.4345C79.8568 42.5896 79.8105 42.7413 79.7237 42.8704C79.6369 42.9994 79.5135 43.0999 79.3691 43.1593C79.2248 43.2187 79.0659 43.2342 78.9127 43.204C78.7595 43.1737 78.6187 43.099 78.5082 42.9892C78.3977 42.8795 78.3225 42.7397 78.292 42.5875C78.2615 42.4353 78.2772 42.2776 78.337 42.1342C78.3968 41.9909 78.498 41.8683 78.6279 41.7821C78.7578 41.6959 78.9106 41.6499 79.0668 41.6499C79.2763 41.65 79.4772 41.7327 79.6253 41.8798C79.7734 42.0269 79.8567 42.2264 79.8568 42.4345Z" fill="#111D36"/>
<path d="M87.1727 42.4345C87.1727 42.5896 87.1264 42.7413 87.0396 42.8704C86.9528 42.9994 86.8294 43.0999 86.6851 43.1593C86.5407 43.2187 86.3819 43.2342 86.2286 43.204C86.0754 43.1737 85.9346 43.099 85.8241 42.9892C85.7137 42.8795 85.6384 42.7397 85.6079 42.5875C85.5774 42.4353 85.5931 42.2776 85.6529 42.1342C85.7127 41.9909 85.8139 41.8683 85.9438 41.7821C86.0738 41.6959 86.2265 41.6499 86.3827 41.6499C86.5922 41.65 86.7931 41.7327 86.9412 41.8798C87.0894 42.0269 87.1726 42.2264 87.1727 42.4345Z" fill="#111D36"/>
<path d="M82.3284 44.1443V45.203C82.3272 45.2644 82.3398 45.3254 82.3653 45.3814C82.3908 45.4375 82.4286 45.4871 82.476 45.5268C82.5233 45.5664 82.5789 45.5951 82.6388 45.6107C82.6987 45.6263 82.7613 45.6285 82.8221 45.617L83.3887 45.4988" stroke="#111D36" stroke-width="0.988" stroke-linecap="round" stroke-linejoin="round"/>
<path d="M81.4145 40.0031L76.6256 40.5746C76.6256 40.5746 77.0097 39.313 78.9669 39.0963C80.924 38.8797 81.4145 40.0031 81.4145 40.0031Z" fill="#111D36"/>
<path d="M84.1759 40.0031L88.9648 40.5746C88.9648 40.5746 88.5803 39.313 86.6235 39.0963C84.6668 38.8797 84.1759 40.0031 84.1759 40.0031Z" fill="#111D36"/>
<path d="M78.2894 45.6553C80.0938 45.6553 81.5566 44.2026 81.5566 42.4106C81.5566 40.6185 80.0938 39.1658 78.2894 39.1658C76.4849 39.1658 75.0222 40.6185 75.0222 42.4106C75.0222 44.2026 76.4849 45.6553 78.2894 45.6553Z" stroke="#6FC7BF" stroke-width="1.083" stroke-miterlimit="10"/>
<path d="M87.5435 45.6553C89.3479 45.6553 90.8107 44.2026 90.8107 42.4106C90.8107 40.6185 89.3479 39.1658 87.5435 39.1658C85.739 39.1658 84.2762 40.6185 84.2762 42.4106C84.2762 44.2026 85.739 45.6553 87.5435 45.6553Z" stroke="#6FC7BF" stroke-width="1.083" stroke-miterlimit="10"/>
<path d="M81.5566 42.679C81.5566 42.679 82.7108 40.9173 84.2762 42.679" stroke="#6FC7BF" stroke-width="1.083" stroke-miterlimit="10"/>
<path d="M80.3101 47.1003H85.5227C85.5227 47.1003 83.0803 49.9942 80.3101 47.1003Z" fill="white"/>
<path d="M193.481 72.8987L205.379 83.1266C206.461 84.0564 207.133 85.3708 207.249 86.7871C207.366 88.2034 206.919 89.6087 206.003 90.701C205.085 91.7982 203.767 92.4917 202.337 92.6312C200.907 92.7706 199.479 92.3449 198.363 91.4462L186.573 81.957L193.481 72.8987Z" fill="#F7A771"/>
<path d="M178.318 62.8809C186.972 64.2699 196.471 72.8986 196.471 72.8986L188.615 84.059L178.271 75.6446L178.318 62.8809Z" fill="#C63838"/>
<path d="M206.045 61.6804L197.491 85.9534C197.265 86.589 197.171 87.2638 197.217 87.9364C197.262 88.6091 197.445 89.2654 197.755 89.8654C198.064 90.4653 198.494 90.9963 199.017 91.4257C199.541 91.8552 200.147 92.1741 200.798 92.363C201.481 92.561 202.198 92.6118 202.902 92.512C203.606 92.4123 204.281 92.1642 204.881 91.7845C205.48 91.4048 205.991 90.9022 206.38 90.3104C206.768 89.7185 207.024 89.0511 207.131 88.3529L211.518 62.5787L206.045 61.6804Z" fill="#F7A771"/>
<path d="M206.045 61.6804C206.045 61.6804 204.364 59.5293 204.031 53.3786C204.022 53.1901 204.069 53.0031 204.167 52.8415C204.266 52.6798 204.41 52.5507 204.582 52.4706C204.703 52.4138 204.835 52.3829 204.969 52.3799C205.103 52.3769 205.237 52.4019 205.361 52.4532C205.484 52.5046 205.596 52.5812 205.688 52.6781C205.78 52.7749 205.851 52.8899 205.895 53.0156L206.745 55.5832L211.517 62.5767L206.045 61.6804Z" fill="#F7A771"/>
<path d="M206.747 55.5831L206.954 47.0473C206.971 46.6855 207.213 46.1739 207.68 46.1542C207.786 46.1364 207.895 46.1406 207.999 46.1664C208.104 46.1922 208.201 46.2392 208.287 46.3043C208.372 46.3694 208.443 46.4513 208.495 46.5448C208.547 46.6384 208.578 46.7415 208.588 46.8479L208.782 52.9002L209.915 45.8234C209.941 45.6578 210.031 45.5087 210.166 45.4073C210.3 45.3059 210.469 45.26 210.637 45.2792C210.802 45.2979 210.954 45.3782 211.061 45.504C211.169 45.6298 211.225 45.7915 211.217 45.9564L210.847 53.6377L212.398 47.3274C212.438 47.1619 212.536 47.0159 212.675 46.915C212.813 46.8141 212.983 46.7647 213.154 46.7756C213.253 46.7816 213.349 46.8076 213.438 46.852C213.526 46.8964 213.604 46.9582 213.668 47.0336C213.731 47.1091 213.779 47.1966 213.807 47.2909C213.835 47.3851 213.844 47.4841 213.833 47.5818L213.036 54.5075L216.117 50.1976C216.18 50.1236 216.257 50.0637 216.345 50.0216C216.432 49.9795 216.527 49.9563 216.624 49.9535C216.722 49.9507 216.818 49.9683 216.908 50.0053C216.998 50.0422 217.079 50.0976 217.145 50.1678C217.248 50.2761 217.313 50.415 217.329 50.5631C217.346 50.7113 217.313 50.8607 217.235 50.9886L214.645 56.2056C214.645 56.2056 214.483 59.4516 211.52 62.5803L206.938 59.8757L206.747 55.5831Z" fill="#F7A771"/>
<path d="M206.747 55.583C206.747 55.583 209.987 55.5971 210.047 58.4866" stroke="#111D36" stroke-width="1.017" stroke-linecap="round" stroke-linejoin="round"/>
<path d="M177.44 62.2129L183.913 64.649C185.605 65.2652 186.037 67.1309 185.594 68.8665L182.602 105.643H157.07L155.103 67.6699C154.972 67.0856 155.055 66.4738 155.336 65.9446C155.618 65.4153 156.081 65.0031 156.641 64.782L165.386 61.3254L177.44 62.2129Z" fill="#E04949"/>
<path d="M184.622 80.811L185.22 73.4697" stroke="#9E2C2C" stroke-width="1.458" stroke-miterlimit="10"/>
<path d="M155.699 87.5265C155.699 87.5265 148.761 114.302 147.027 137.406L141.924 136.731C141.924 136.731 142.673 103.029 146.618 81.9565L155.699 87.5265Z" fill="#F7A771"/>
<path d="M155.929 65.2109C155.929 65.2109 150.178 66.5751 145.154 82.3798L157.8 89.2186L160.492 80.0289L155.929 65.2109Z" fill="#C63838"/>
<path d="M174.521 61.3415L174.021 52.2281C174.021 52.2281 172.326 53.4034 170.784 53.6875C169.241 53.9717 167.751 53.0774 167.732 53.0665L165.94 52.0308L165.4 61.325H165.384L162.687 62.3913C162.687 62.3913 164.381 65.2567 170.03 64.9637C175.68 64.6707 177.44 62.2121 177.44 62.2121L174.521 61.3415Z" fill="#F7A771"/>
<path d="M165.574 52.3798C165.574 52.3798 168.07 56.9027 171.041 56.2548C174.144 55.5783 174.26 51.635 174.26 51.635L165.574 52.3798Z" fill="#111D36"/>
<path d="M178.33 39.8965C178.326 42.7726 178.002 45.6394 177.363 48.4448C176.89 50.5155 175.56 51.9625 173.681 53.1273L173.338 53.3395C172.352 53.9444 171.218 54.2709 170.059 54.2838C168.9 54.2968 167.759 53.9957 166.759 53.4131C164.722 52.2153 163.295 50.6361 162.856 48.4138C162.347 45.6008 162.051 42.7537 161.971 39.8965C161.971 39.8965 161.211 31.1787 170.034 31.3479C178.857 31.5171 178.33 39.8965 178.33 39.8965Z" fill="#F7A771"/>
<path d="M162.932 48.0834C161.377 49.4166 158.104 44.1377 159.61 42.7144C161.115 41.2912 162.18 43.6071 162.18 43.6071L162.485 45.2751L162.94 47.5203L163.057 48.0239L162.932 48.0834Z" fill="#F7A771"/>
<path d="M160.286 44.4934C160.286 44.4934 160.922 43.1268 162.402 45.5268" stroke="#111D36" stroke-width="1.033" stroke-linecap="round" stroke-linejoin="round"/>
<path d="M177.359 48.1144C178.937 49.4211 182.118 44.0871 180.588 42.6884C179.058 41.2897 178.034 43.6245 178.034 43.6245L177.758 45.2973L177.342 47.5501L177.233 48.0554L177.359 48.1144Z" fill="#F7A771"/>
<path d="M179.944 44.4797C179.944 44.4797 179.285 43.1236 177.846 45.5492" stroke="#111D36" stroke-width="1.033" stroke-linecap="round" stroke-linejoin="round"/>
<path d="M167.054 42.7516C167.054 42.9114 167.006 43.0676 166.917 43.2005C166.828 43.3334 166.701 43.437 166.552 43.4982C166.403 43.5594 166.24 43.5755 166.082 43.5444C165.924 43.5133 165.779 43.4363 165.665 43.3234C165.552 43.2104 165.474 43.0665 165.443 42.9097C165.411 42.753 165.427 42.5905 165.489 42.4429C165.55 42.2953 165.655 42.1691 165.788 42.0803C165.922 41.9915 166.08 41.9441 166.24 41.9441C166.456 41.9441 166.663 42.0292 166.815 42.1806C166.968 42.332 167.054 42.5374 167.054 42.7516Z" fill="#111D36"/>
<path d="M174.585 42.7516C174.585 42.9114 174.538 43.0676 174.448 43.2005C174.359 43.3334 174.232 43.437 174.083 43.4982C173.935 43.5594 173.771 43.5755 173.613 43.5444C173.455 43.5133 173.31 43.4363 173.197 43.3234C173.083 43.2104 173.005 43.0665 172.974 42.9097C172.942 42.753 172.959 42.5905 173.02 42.4429C173.082 42.2953 173.186 42.1691 173.32 42.0803C173.453 41.9915 173.611 41.9441 173.772 41.9441C173.987 41.9441 174.194 42.0292 174.347 42.1806C174.499 42.332 174.585 42.5374 174.585 42.7516Z" fill="#111D36"/>
<path d="M169.598 43.981V45.6015C169.597 45.6649 169.61 45.7277 169.636 45.7854C169.662 45.8431 169.701 45.8942 169.75 45.935C169.799 45.9759 169.856 46.0054 169.918 46.0214C169.979 46.0374 170.044 46.0395 170.107 46.0276L170.69 45.907" stroke="#111D36" stroke-width="1.017" stroke-linecap="round" stroke-linejoin="round"/>
<path d="M171.266 39.7881L175.961 40.9939C175.961 40.9939 175.748 39.6864 173.827 39.2114C171.907 38.7363 171.266 39.7881 171.266 39.7881Z" fill="#111D36"/>
<path d="M168.35 39.7881L163.655 40.9939C163.655 40.9939 163.869 39.6864 165.789 39.2114C167.709 38.7363 168.35 39.7881 168.35 39.7881Z" fill="#111D36"/>
<path d="M169.617 48.4026C169.79 48.2903 169.915 48.1186 169.969 47.9203C170.079 47.5184 170.126 46.8753 169.347 46.8046C168.202 46.6981 166.287 48.8842 164.612 47.6313C164.61 47.6317 166.212 50.5875 169.617 48.4026Z" fill="#111D36"/>
<path d="M170.255 48.4026C170.082 48.2901 169.957 48.1184 169.904 47.9203C169.795 47.5184 169.748 46.8753 170.523 46.8046C171.663 46.6981 173.571 48.8842 175.24 47.6313C175.24 47.6317 173.645 50.5875 170.255 48.4026Z" fill="#111D36"/>
<path d="M178.126 29.5662C175.242 27.54 169.751 29.4247 166.713 30.7394C166.739 30.4583 166.707 30.175 166.62 29.9063C166.533 29.6377 166.392 29.3892 166.206 29.1759C160.989 30.7655 161.644 33.7177 162.009 34.6582C160.986 35.7261 159.581 38.3917 162.248 43.983C162.248 43.983 163.737 39.2093 163.104 35.411C165.577 36.5224 172.29 39.1835 176.556 37.4902C176.715 39.7105 177.193 41.8968 177.975 43.983C179.589 39.8833 179.363 37.4146 178.72 35.9645C179.459 35.0899 181.623 32.0227 178.126 29.5662Z" fill="#111D36"/>
<path d="M177.759 156.802H194.166C188.106 131.085 183.352 113.307 183.352 113.307L182.601 105.644H170.144L170.708 132.564L177.759 156.802Z" fill="#E5A829"/>
<path d="M170.708 132.564L170.145 105.644H157.07C147.284 120.188 152.823 146.034 152.823 146.034L154.314 156.802H170.708V132.564Z" fill="#E5A829"/>
<path d="M170.708 132.564V124.936L174.412 119.236" stroke="#E5A829" stroke-width="1.368" stroke-miterlimit="10"/>
<path d="M120.342 147.86C120.342 147.86 124.751 126.131 127.344 120.207C127.397 120.09 127.486 119.993 127.597 119.928C127.708 119.863 127.837 119.834 127.965 119.845C128.094 119.856 128.216 119.906 128.315 119.988C128.414 120.07 128.484 120.181 128.517 120.305C129.142 122.563 129.965 129.216 129.598 148.798L129.607 156.802H145.079L147.359 137.538C147.359 137.538 150.806 110.69 139.579 95.4419H117.077C117.077 95.4419 105.603 112.018 104.092 134.911C103.755 140.006 103.175 147.785 102.478 156.802H118.42L120.342 147.86Z" fill="#111D36"/>
<path d="M123.489 118.167L128.759 120.305" stroke="#111D36" stroke-width="1.458" stroke-miterlimit="10"/>
<path d="M123.427 53.064L112.605 56.019L117.079 92.708H139.787L144.267 55.8582L132.269 52.9028L123.427 53.064Z" fill="#FFCC05"/>
<path d="M139.582 92.708H117.079V95.4423H139.582V92.708Z" fill="#111D36"/>
<path d="M133.888 79.4872C133.888 79.4872 143.162 75.7919 148.13 78.3699L148.598 84.2996L133.456 86.1886L133.888 79.4872Z" fill="#F7A771"/>
<path d="M153.703 91.441C153.703 91.441 138.648 93.2368 126.446 86.8775L136.781 83.7685L149.549 81.6355L153.703 91.441Z" fill="#FFCC05"/>
<path d="M143.535 55.7456C143.535 55.7456 149.382 56.117 153.109 67.6162C157.07 79.8349 157.359 89.4547 154.609 91.068C151.859 92.6814 148.449 89.1195 144.951 79.2798C141.453 69.4402 139.838 64.1419 139.838 64.1419L143.535 55.7456Z" fill="#FFCC05"/>
<path d="M142.334 71.7586L143.235 64.3462" stroke="#EAB600" stroke-width="1.458" stroke-miterlimit="10"/>
<path d="M112.605 56.019C112.605 56.019 106.757 56.3908 103.03 67.8897C99.07 80.1083 98.781 89.7285 101.533 91.3415C104.285 92.9544 108.104 89.3929 111.603 79.5537C115.101 69.7144 116.303 64.4154 116.303 64.4154L112.605 56.019Z" fill="#FFCC05"/>
<path d="M114.438 71.0492L113.626 64.3462" stroke="#EAB600" stroke-width="1.458" stroke-miterlimit="10"/>
<path d="M117.454 79.5323C114.278 76.5494 110.474 74.3045 106.317 72.9599C106.167 72.9123 106.007 72.9042 105.853 72.9362C105.699 72.9683 105.556 73.0394 105.438 73.1428C105.326 73.2411 105.24 73.3656 105.189 73.5051C105.137 73.6446 105.121 73.7947 105.142 73.9419C105.163 74.0891 105.221 74.2287 105.31 74.3481C105.4 74.4675 105.517 74.563 105.653 74.6259L109.833 76.5652L104.347 76.9269C104.132 76.939 103.921 76.9947 103.729 77.0907C103.536 77.1867 103.366 77.3209 103.228 77.485C103.09 77.649 102.987 77.8395 102.926 78.0446C102.865 78.2497 102.847 78.4651 102.873 78.6774C102.985 79.4619 103.521 80.486 105.042 81.6741L117.454 79.5323Z" fill="#F7A771"/>
<path d="M105.042 81.6759C105.042 81.6759 124.925 77.7804 134.358 77.8194L138.122 87.0614C138.122 87.0614 108.691 94.3894 101.531 91.3415L105.042 81.6759Z" fill="#FFCC05"/>
<path d="M117.454 79.5322C117.454 79.5322 129.952 77.5958 134.358 77.8192L134.89 79.1247" stroke="#EAB600" stroke-width="1.458" stroke-miterlimit="10"/>
<path d="M116.899 91.2369L138.122 87.0613L134.89 79.1248" stroke="#EAB600" stroke-width="1.458" stroke-miterlimit="10"/>
<path d="M117.988 37.2165L113.548 42.9713C113.548 42.9713 129.517 55.1538 142.651 42.11L137.966 36.4319L117.988 37.2165Z" fill="#111D36"/>
<path d="M132.246 52.6187L131.125 43.7814C130.376 44.4999 129.445 45.0029 128.431 45.2368C126.895 45.5202 125.407 44.6283 125.388 44.6174C125.369 44.6066 124.134 43.5845 124.134 43.5845L123.456 52.7417C123.455 52.8494 123.445 52.9569 123.427 53.0632L128.29 63.562L132.269 52.902C132.255 52.8083 132.247 52.7136 132.246 52.6187Z" fill="#F7A771"/>
<path d="M123.427 43.9327C123.427 43.9327 125.779 48.8652 128.579 48.2193C131.502 47.5449 131.489 43.3081 131.489 43.3081L123.427 43.9327Z" fill="#111D36"/>
<path d="M137.633 30.9724C137.633 36.4949 133.306 40.972 127.968 40.972C122.63 40.972 118.303 36.4949 118.303 30.9724C118.303 25.4499 122.63 21.6926 127.968 21.6926C133.306 21.6926 137.633 25.4499 137.633 30.9724Z" fill="#111D36"/>
<path d="M135.952 31.4869C135.948 34.3538 135.625 37.2115 134.989 40.0078C134.517 42.0726 133.191 43.5151 131.316 44.6767L130.975 44.8881C129.991 45.4911 128.861 45.8166 127.705 45.8295C126.55 45.8424 125.412 45.5422 124.415 44.9612C122.384 43.7671 120.962 42.1927 120.524 39.9773C120.016 37.1726 119.721 34.3339 119.641 31.4853C119.641 31.4853 118.884 22.794 127.68 22.9644C136.477 23.1348 135.952 31.4869 135.952 31.4869Z" fill="#F7A771"/>
<path d="M120.603 39.6497C119.053 40.9784 115.789 35.7156 117.29 34.2967C118.791 32.8779 119.853 35.1866 119.853 35.1866L120.157 36.8498L120.61 39.0882L120.727 39.5902L120.603 39.6497Z" fill="#F7A771"/>
<path d="M117.965 36.07C117.965 36.07 118.599 34.7071 120.074 37.1006" stroke="#111D36" stroke-width="1.03" stroke-linecap="round" stroke-linejoin="round"/>
<path d="M134.986 39.6802C136.559 40.9828 139.731 35.6653 138.206 34.2718C136.681 32.8783 135.659 35.2055 135.659 35.2055L135.384 36.8731L134.969 39.1191L134.86 39.6243L134.986 39.6802Z" fill="#F7A771"/>
<path d="M137.563 36.0562C137.563 36.0562 136.905 34.7041 135.471 37.1226" stroke="#111D36" stroke-width="1.03" stroke-linecap="round" stroke-linejoin="round"/>
<path d="M136.2 29.3603C135.778 27.4517 134.663 25.7646 133.067 24.6219C131.985 23.5407 130.567 22.853 129.043 22.6697C129.043 22.6697 123.55 21.4394 121.276 25.5656C120.191 26.5796 119.455 27.9072 119.172 29.3603C118.492 32.7276 119.757 34.1939 119.757 34.1939C121.115 32.2591 122.038 30.0557 122.46 27.7345C124.124 29.101 127.496 30.812 133.896 30.726C134.499 31.9888 135.239 33.1826 136.102 34.2863C136.102 34.2863 136.88 32.7276 136.2 29.3603Z" fill="#111D36"/>
<path d="M124.712 34.8627C124.712 35.0217 124.665 35.1771 124.576 35.3093C124.487 35.4415 124.361 35.5445 124.213 35.6054C124.065 35.6662 123.902 35.6821 123.745 35.6511C123.588 35.6201 123.444 35.5435 123.331 35.4311C123.217 35.3187 123.14 35.1755 123.109 35.0195C123.078 34.8636 123.094 34.702 123.155 34.5551C123.216 34.4082 123.32 34.2826 123.453 34.1943C123.586 34.106 123.743 34.0588 123.903 34.0588C124.118 34.0588 124.324 34.1435 124.475 34.2943C124.627 34.445 124.712 34.6495 124.712 34.8627Z" fill="#111D36"/>
<path d="M132.221 34.8627C132.221 35.0217 132.173 35.1771 132.085 35.3093C131.996 35.4415 131.869 35.5445 131.721 35.6054C131.573 35.6662 131.411 35.6821 131.254 35.6511C131.097 35.6201 130.952 35.5435 130.839 35.4311C130.726 35.3187 130.649 35.1755 130.618 35.0195C130.586 34.8636 130.602 34.702 130.664 34.5551C130.725 34.4082 130.829 34.2826 130.962 34.1943C131.095 34.106 131.251 34.0588 131.412 34.0588C131.626 34.0588 131.832 34.1435 131.984 34.2943C132.136 34.445 132.221 34.6495 132.221 34.8627Z" fill="#111D36"/>
<path d="M127.056 36.6169V37.7022C127.054 37.7652 127.067 37.8278 127.094 37.8853C127.12 37.9428 127.159 37.9937 127.207 38.0344C127.256 38.0751 127.313 38.1046 127.374 38.1206C127.436 38.1366 127.5 38.1388 127.562 38.127L128.144 38.0064" stroke="#111D36" stroke-width="1.014" stroke-linecap="round" stroke-linejoin="round"/>
<path d="M131.048 31.1359C131.048 31.1359 128.673 30.9422 128.649 31.9024C128.649 31.9024 128.651 32.5523 130.723 32.6813C132.795 32.8103 133.334 32.6592 133.523 32.0487C133.713 31.4381 132.162 31.1415 131.048 31.1359Z" fill="#111D36"/>
<path d="M123.947 31.1359C123.947 31.1359 126.322 30.9422 126.346 31.9024C126.346 31.9024 126.346 32.5523 124.272 32.6813C122.199 32.8103 121.662 32.6592 121.472 32.0487C121.283 31.4381 122.834 31.1415 123.947 31.1359Z" fill="#111D36"/>
<path d="M129.804 38.9668C129.804 38.9668 128.951 40.3269 126.754 39.9427" stroke="#111D36" stroke-width="1.014" stroke-linecap="round" stroke-linejoin="round"/>
<path d="M19.4293 156.802H227.969" stroke="#E5A829" stroke-width="0.985" stroke-linecap="round" stroke-linejoin="round"/>
</svg>
