<svg width="37" height="46" viewBox="0 0 37 46" fill="none" xmlns="http://www.w3.org/2000/svg">
<g filter="url(#filter0_f_99_1281)">
<rect x="11.6252" y="28.9399" width="14.2013" height="5.33333" rx="2.66667" transform="rotate(-0.748513 11.6252 28.9399)" fill="#B3B3B3" fill-opacity="0.8"/>
</g>
<g filter="url(#filter1_d_99_1281)">
<path fill-rule="evenodd" clip-rule="evenodd" d="M18.8475 28.8456C19.9128 28.8317 24.9044 22.5448 26.1294 20.5469C28.0125 17.4758 29.1761 15.6583 29.1321 12.2957C29.0582 6.63386 24.2976 2.10544 18.4991 2.18119C12.7006 2.25695 8.05997 6.9082 8.13394 12.57C8.1781 15.9502 9.3015 17.7258 11.2576 20.7412C12.621 22.843 17.7822 28.8595 18.8475 28.8456Z" fill="#E4AC3B"/>
<path d="M18.8605 29.8455C19.146 29.8418 19.3863 29.742 19.5356 29.6679C19.7013 29.5858 19.8614 29.4807 20.0085 29.3725C20.3034 29.1556 20.6285 28.8646 20.9614 28.5391C21.6318 27.8839 22.4176 27.0064 23.1937 26.0841C24.7387 24.2481 26.3304 22.1322 26.9819 21.0697C27.0365 20.9806 27.0906 20.8925 27.1443 20.8051C28.931 17.8943 30.1788 15.8615 30.1321 12.2826C30.0506 6.04621 24.8142 1.0986 18.486 1.18128C12.1579 1.26395 7.05254 6.34668 7.13402 12.5831C7.18225 16.2746 8.45783 18.2627 10.4187 21.2855C11.1437 22.403 12.8165 24.4788 14.4222 26.257C15.2291 27.1506 16.0416 27.9943 16.7315 28.6209C17.0742 28.9322 17.4077 29.2093 17.7087 29.4142C17.8588 29.5164 18.0216 29.6149 18.1888 29.6907C18.3401 29.7593 18.5798 29.8492 18.8605 29.8455Z" stroke="white" stroke-width="2"/>
</g>
<path fill-rule="evenodd" clip-rule="evenodd" d="M18.6999 17.5588C21.5991 17.521 23.9195 15.1953 23.8825 12.3644C23.8455 9.53348 21.4652 7.26927 18.566 7.30715C15.6667 7.34503 13.3464 9.67065 13.3834 12.5016C13.4204 15.3325 15.8006 17.5967 18.6999 17.5588Z" fill="white"/>
<defs>
<filter id="filter0_f_99_1281" x="0.786663" y="17.9159" width="35.9469" height="27.1955" filterUnits="userSpaceOnUse" color-interpolation-filters="sRGB">
<feFlood flood-opacity="0" result="BackgroundImageFix"/>
<feBlend mode="normal" in="SourceGraphic" in2="BackgroundImageFix" result="shape"/>
<feGaussianBlur stdDeviation="5.43656" result="effect1_foregroundBlur_99_1281"/>
</filter>
<filter id="filter1_d_99_1281" x="1.13306" y="0.180176" width="35.0002" height="40.6655" filterUnits="userSpaceOnUse" color-interpolation-filters="sRGB">
<feFlood flood-opacity="0" result="BackgroundImageFix"/>
<feColorMatrix in="SourceAlpha" type="matrix" values="0 0 0 0 0 0 0 0 0 0 0 0 0 0 0 0 0 0 127 0" result="hardAlpha"/>
<feOffset dy="5"/>
<feGaussianBlur stdDeviation="2.5"/>
<feColorMatrix type="matrix" values="0 0 0 0 0 0 0 0 0 0 0 0 0 0 0 0 0 0 0.2 0"/>
<feBlend mode="normal" in2="BackgroundImageFix" result="effect1_dropShadow_99_1281"/>
<feBlend mode="normal" in="SourceGraphic" in2="effect1_dropShadow_99_1281" result="shape"/>
</filter>
</defs>
</svg>
