<svg width="22" height="27" viewBox="0 0 22 27" fill="none" xmlns="http://www.w3.org/2000/svg">
<path d="M10.9622 25.1371C11.2361 25.1335 11.462 25.0382 11.5946 24.9724C11.7436 24.8985 11.8847 24.8055 12.0107 24.7128C12.2634 24.5269 12.5383 24.2805 12.8155 24.0095C13.3744 23.4632 14.0268 22.7344 14.6687 21.9716C15.9452 20.4546 17.265 18.7012 17.8093 17.8135C17.8562 17.737 17.9026 17.6613 17.9487 17.5862C19.4198 15.19 20.4732 13.4741 20.4339 10.4704C20.3654 5.22484 15.9621 1.0697 10.6487 1.13912C5.33531 1.20854 1.04205 5.47729 1.11058 10.7229C1.15108 13.8229 2.23007 15.5003 3.84862 17.9953C4.45427 18.9289 5.84164 20.6495 7.1684 22.1188C7.83583 22.858 8.51057 23.5588 9.08582 24.0813C9.37123 24.3406 9.65316 24.5753 9.91117 24.7509C10.0398 24.8385 10.1832 24.9257 10.3335 24.9938C10.4679 25.0547 10.6932 25.1406 10.9622 25.1371Z" fill="#E4AC3B" stroke="white" stroke-width="2"/>
<path fill-rule="evenodd" clip-rule="evenodd" d="M10.8275 14.8254C13.2194 14.7941 15.1336 12.8755 15.1031 10.54C15.0726 8.20446 13.1089 6.33649 10.717 6.36773C8.32511 6.39898 6.41084 8.31762 6.44136 10.6531C6.47187 12.9886 8.43561 14.8566 10.8275 14.8254Z" fill="white"/>
</svg>
