<svg width="48" height="48" viewBox="0 0 48 48" fill="none" xmlns="http://www.w3.org/2000/svg">
<g clip-path="url(#clip0_901_27330)">
<path d="M39.9754 24.8498C39.9754 23.7936 39.8559 22.7374 39.7364 21.6812H24.8016V27.6665H33.2846C32.9262 29.5441 31.851 31.3045 30.1783 32.3609V36.2337H35.3159C38.3029 33.5345 39.9756 29.5441 39.9756 24.8499L39.9754 24.8498Z" fill="#4285F4"/>
<path d="M24.8014 39.9895C29.1026 39.9895 32.687 38.5811 35.3156 36.2339L30.178 32.3611C28.7442 33.2999 26.952 33.8867 24.8014 33.8867C20.7389 33.8867 17.1545 31.1875 15.9597 27.4319H10.7028V31.4221C13.4507 36.7033 18.8274 39.9895 24.8014 39.9895Z" fill="#34A853"/>
<path d="M15.9596 27.4319C15.2429 25.5541 15.2429 23.4417 15.9596 21.4465V17.4563H10.7027C8.43243 21.7987 8.43243 26.9625 10.7027 31.4221L15.9596 27.4319Z" fill="#FBBC04"/>
<path d="M24.8015 15.1091C27.0716 15.1091 29.2221 15.9307 30.895 17.4563L35.4352 12.9967C32.5675 10.4147 28.7443 8.88909 24.9208 9.0063C18.9468 9.0063 13.4508 12.2925 10.8221 17.5737L16.0793 21.5639C17.1545 17.8083 20.739 15.1091 24.8015 15.1091Z" fill="#EA4335"/>
</g>
<defs>
<clipPath id="clip0_901_27330">
<rect width="31" height="31" fill="white" transform="translate(9 9)"/>
</clipPath>
</defs>
</svg>
