<svg width="14" height="12" viewBox="0 0 14 12" fill="none" xmlns="http://www.w3.org/2000/svg">
<path d="M11.3983 0H1.72504C1.2675 0.0310673 0.841608 0.227582 0.539579 0.547004C0.237549 0.866425 0.08369 1.28304 0.111325 1.70663V11.2523C0.11123 11.2812 0.120566 11.3095 0.13811 11.3334C0.155653 11.3573 0.180578 11.3757 0.20964 11.3863C0.238703 11.3969 0.270548 11.3991 0.300993 11.3926C0.331437 11.3862 0.359073 11.3714 0.38028 11.3502L2.77305 8.99342H11.3392C11.8142 8.94836 12.2527 8.73714 12.565 8.40296C12.8773 8.06878 13.0398 7.63687 13.0192 7.19555V1.70746C13.0469 1.28387 12.893 0.867261 12.591 0.547839C12.2889 0.228417 11.863 0.0318898 11.4055 0.000822486L11.3983 0ZM1.9644 6.45999C1.96464 6.37385 2.00174 6.29128 2.06759 6.23037C2.13344 6.16945 2.2227 6.13514 2.31583 6.13492H5.88841C5.98162 6.13492 6.071 6.16917 6.1369 6.23013C6.20281 6.29109 6.23984 6.37378 6.23984 6.45999C6.23984 6.54621 6.20281 6.6289 6.1369 6.68986C6.071 6.75082 5.98162 6.78507 5.88841 6.78507H2.31763C2.27136 6.78518 2.22552 6.77686 2.18273 6.76058C2.13994 6.7443 2.10103 6.72039 2.06823 6.6902C2.03543 6.66002 2.00937 6.62414 1.99156 6.58465C1.97374 6.54515 1.96452 6.50279 1.9644 6.45999ZM1.9644 4.49629C1.96464 4.41014 2.00174 4.32758 2.06759 4.26666C2.13344 4.20575 2.2227 4.17144 2.31583 4.17122H10.8084C10.9016 4.17122 10.991 4.20546 11.0569 4.26642C11.1228 4.32739 11.1599 4.41008 11.1599 4.49629C11.1599 4.5825 11.1228 4.66518 11.0569 4.72614C10.991 4.78711 10.9016 4.82136 10.8084 4.82136H2.31583C2.2227 4.82114 2.13344 4.78682 2.06759 4.7259C2.00174 4.66499 1.96464 4.58244 1.9644 4.49629ZM10.8075 2.85766H2.31493C2.22173 2.85766 2.13235 2.8234 2.06644 2.76244C2.00053 2.70148 1.9635 2.6188 1.9635 2.53259C1.9635 2.44637 2.00053 2.36368 2.06644 2.30272C2.13235 2.24176 2.22173 2.2075 2.31493 2.2075H10.8075C10.9007 2.2075 10.9901 2.24176 11.056 2.30272C11.1219 2.36368 11.159 2.44637 11.159 2.53259C11.159 2.6188 11.1219 2.70148 11.056 2.76244C10.9901 2.8234 10.9007 2.85766 10.8075 2.85766Z" fill="white"/>
</svg>
