<svg width="76" height="37" viewBox="0 0 76 37" fill="none" xmlns="http://www.w3.org/2000/svg">
<path d="M74.3194 1.62842H21.1025V35.581H74.3194V1.62842Z" fill="#E5A829"/>
<path d="M74.3203 1.62842H70.9238V35.581H74.3203V1.62842Z" fill="#F9CD45"/>
<path d="M51.1464 20.8768L74.3194 35.6614H21.1025L44.2756 20.8768C46.3705 19.5404 49.0516 19.5404 51.1464 20.8768Z" fill="#F0BE23"/>
<path d="M51.1473 20.8767C49.5985 19.8885 47.7296 19.6332 46.0137 20.1062C46.6185 20.273 47.2048 21.7083 47.7509 22.0567L67.9705 35.6613H74.3204L51.1473 20.8767Z" fill="#F8B53C"/>
<path d="M44.2756 21.8788L21.1025 1.62842H74.3194L51.1464 21.8788C49.0516 23.7093 46.3705 23.7093 44.2756 21.8788Z" fill="#FDBF00"/>
<path d="M69.7424 1.62842L46.4218 22.3213C45.8757 22.7984 46.6187 22.7075 46.0137 22.936C47.7295 23.5838 49.5985 23.2322 51.1473 21.8788L74.3202 1.62842H69.7424Z" fill="#F8B53C"/>
<path d="M74.3193 16.7488C74.9311 16.7488 75.4268 16.2535 75.4268 15.6426V1.62856C75.4268 1.61558 75.4253 1.6029 75.4249 1.58992C75.4245 1.57694 75.4239 1.56426 75.423 1.55128C75.4157 1.447 75.394 1.347 75.3599 1.25275C75.3585 1.24833 75.3577 1.2439 75.3561 1.23948C75.3548 1.23608 75.3528 1.23299 75.3515 1.22959C75.3328 1.18122 75.3112 1.13431 75.2861 1.08948C75.2831 1.08417 75.2797 1.0793 75.2766 1.07399C75.2536 1.03446 75.2281 0.996555 75.2004 0.960272C75.195 0.953044 75.1897 0.945522 75.1841 0.938295C75.1539 0.900684 75.1213 0.865138 75.0864 0.831805C75.0789 0.824578 75.0711 0.817794 75.0633 0.810715C75.0303 0.780774 74.9958 0.752602 74.9594 0.726791C74.9549 0.723546 74.9507 0.720006 74.9462 0.716909C74.9055 0.689033 74.8627 0.664253 74.8184 0.641834C74.81 0.637557 74.8014 0.633576 74.7929 0.629594C74.7031 0.586968 74.6068 0.55629 74.5057 0.539033C74.4946 0.537116 74.4835 0.535491 74.4724 0.534017C74.4222 0.527084 74.3714 0.522217 74.3193 0.522217H21.1024C21.0503 0.522217 20.9995 0.527084 20.9493 0.534017C20.9382 0.535491 20.9272 0.537263 20.9161 0.539033C20.8149 0.556142 20.7187 0.586968 20.6289 0.629594C20.6203 0.633576 20.6117 0.637557 20.6033 0.641834C20.559 0.664253 20.5162 0.688885 20.4756 0.716909C20.471 0.720006 20.4667 0.723694 20.4623 0.726791C20.4258 0.752602 20.3914 0.780774 20.3585 0.810715C20.3508 0.817794 20.3428 0.82443 20.3353 0.831805C20.3005 0.865138 20.268 0.900684 20.2377 0.938295C20.2319 0.945374 20.2268 0.952897 20.2213 0.960272C20.1937 0.996555 20.1681 1.03446 20.1451 1.07399C20.142 1.0793 20.1386 1.08417 20.1356 1.08948C20.1105 1.13431 20.0891 1.18107 20.0704 1.22945C20.069 1.23284 20.067 1.23594 20.0657 1.23948C20.064 1.2439 20.0634 1.24833 20.0618 1.25275C20.0277 1.34715 20.006 1.44715 19.9988 1.55143C19.9979 1.56426 19.9973 1.57709 19.9968 1.58992C19.9964 1.6029 19.9949 1.61558 19.9949 1.62871V8.1218C19.9949 8.73272 20.4906 9.228 21.1024 9.228C21.7142 9.228 22.21 8.73272 22.21 8.1218V4.06633L41.7724 21.1614L22.21 33.6422V12.9889C22.21 12.378 21.7142 11.8827 21.1024 11.8827C20.4906 11.8827 19.9949 12.378 19.9949 12.9889V35.5812C19.9949 35.5911 19.9961 35.6005 19.9964 35.6102C19.9908 35.7299 20.0044 35.8517 20.0394 35.9715C20.1774 36.4433 20.6104 36.7675 21.1024 36.7675H74.3193C74.8113 36.7675 75.2445 36.4433 75.3824 35.9715C75.4174 35.8517 75.4308 35.7299 75.4253 35.6102C75.4256 35.6005 75.4268 35.5909 75.4268 35.5812V20.5099C75.4268 19.899 74.9311 19.4037 74.3193 19.4037C73.7075 19.4037 73.2118 19.899 73.2118 20.5099V33.6421L53.6495 21.1612L73.2118 4.06618V15.6426C73.2118 16.2537 73.7075 16.7488 74.3193 16.7488ZM70.4025 34.475H25.0193L43.5087 22.6786L43.5462 22.7115C44.8111 23.8171 46.2608 24.3698 47.7108 24.3696C49.1605 24.3695 50.6108 23.8167 51.8756 22.7115L51.9131 22.6788L70.4025 34.475ZM50.4172 21.0463C48.7479 22.5049 46.674 22.505 45.0049 21.0463L44.3299 20.4565L44.3253 20.4525L24.0503 2.73476H71.3715L50.4172 21.0463Z" fill="black"/>
<path d="M16.2817 11.4402H1.59776C0.985965 11.4402 0.490234 11.9355 0.490234 12.5464C0.490234 13.1573 0.985965 13.6526 1.59776 13.6526H16.2817C16.8935 13.6526 17.3892 13.1573 17.3892 12.5464C17.3892 11.9355 16.8934 11.4402 16.2817 11.4402Z" fill="black"/>
<path d="M16.2824 17.937H6.35069C5.73889 17.937 5.24316 18.4323 5.24316 19.0432C5.24316 19.6541 5.73889 20.1494 6.35069 20.1494H16.2824C16.8942 20.1494 17.39 19.6541 17.39 19.0432C17.39 18.4323 16.8941 17.937 16.2824 17.937Z" fill="black"/>
<path d="M16.2812 23.6372H11.3154C10.7036 23.6372 10.2078 24.1325 10.2078 24.7434C10.2078 25.3543 10.7036 25.8496 11.3154 25.8496H16.2812C16.893 25.8496 17.3888 25.3543 17.3888 24.7434C17.3888 24.1325 16.8929 23.6372 16.2812 23.6372Z" fill="black"/>
</svg>
